<svg width="153" height="22" viewBox="0 0 153 22" fill="none" xmlns="http://www.w3.org/2000/svg">
<path d="M7.328 17.812C6.528 17.812 5.84 17.652 5.264 17.332C4.704 17.012 4.248 16.58 3.896 16.036C3.56 15.476 3.304 14.844 3.128 14.14H2.744L2.864 17.5H0.896V11.38V0.699999H3.104V4.588C3.104 5.004 3.08 5.444 3.032 5.908C3 6.356 2.944 6.82 2.864 7.3C2.8 7.78 2.728 8.244 2.648 8.692H3.08C3.256 8.02 3.512 7.388 3.848 6.796C4.184 6.204 4.632 5.724 5.192 5.356C5.768 4.988 6.48 4.804 7.328 4.804C8.384 4.804 9.28 5.084 10.016 5.644C10.768 6.188 11.344 6.948 11.744 7.924C12.144 8.9 12.344 10.036 12.344 11.332C12.344 12.58 12.144 13.692 11.744 14.668C11.36 15.644 10.792 16.412 10.04 16.972C9.304 17.532 8.4 17.812 7.328 17.812ZM6.8 15.892C7.488 15.892 8.072 15.708 8.552 15.34C9.032 14.972 9.4 14.444 9.656 13.756C9.928 13.068 10.064 12.268 10.064 11.356C10.064 10.46 9.936 9.668 9.68 8.98C9.424 8.276 9.056 7.724 8.576 7.324C8.096 6.908 7.504 6.7 6.8 6.7C6.288 6.7 5.832 6.804 5.432 7.012C5.032 7.204 4.68 7.468 4.376 7.804C4.088 8.14 3.848 8.508 3.656 8.908C3.464 9.308 3.32 9.708 3.224 10.108C3.128 10.508 3.08 10.876 3.08 11.212V11.5C3.08 11.98 3.16 12.476 3.32 12.988C3.496 13.5 3.744 13.98 4.064 14.428C4.384 14.86 4.776 15.212 5.24 15.484C5.704 15.756 6.224 15.892 6.8 15.892ZM18.377 17.812C17.705 17.812 17.097 17.684 16.553 17.428C16.009 17.156 15.577 16.764 15.257 16.252C14.937 15.724 14.777 15.06 14.777 14.26C14.777 13.668 14.881 13.148 15.089 12.7C15.313 12.252 15.649 11.868 16.097 11.548C16.561 11.228 17.153 10.964 17.873 10.756C18.593 10.548 19.473 10.372 20.513 10.228C21.105 10.148 21.585 10.068 21.953 9.988C22.337 9.908 22.617 9.78 22.793 9.604C22.969 9.412 23.057 9.132 23.057 8.764C23.057 8.156 22.849 7.644 22.433 7.228C22.017 6.812 21.361 6.604 20.465 6.604C20.001 6.604 19.529 6.684 19.049 6.844C18.569 7.004 18.145 7.276 17.777 7.66C17.425 8.028 17.201 8.548 17.105 9.22L15.089 8.548C15.217 7.972 15.425 7.452 15.713 6.988C16.017 6.524 16.401 6.132 16.865 5.812C17.329 5.476 17.865 5.22 18.473 5.044C19.097 4.868 19.785 4.78 20.537 4.78C21.577 4.78 22.441 4.956 23.129 5.308C23.833 5.66 24.353 6.204 24.689 6.94C25.041 7.66 25.217 8.588 25.217 9.724V12.484C25.217 12.98 25.225 13.524 25.241 14.116C25.273 14.692 25.313 15.276 25.361 15.868C25.409 16.444 25.457 16.988 25.505 17.5H23.489C23.441 16.988 23.393 16.476 23.345 15.964C23.313 15.452 23.289 14.94 23.273 14.428H22.961C22.721 15.02 22.401 15.572 22.001 16.084C21.601 16.596 21.097 17.012 20.489 17.332C19.897 17.652 19.193 17.812 18.377 17.812ZM19.025 16.036C19.377 16.036 19.729 15.98 20.081 15.868C20.449 15.756 20.809 15.572 21.161 15.316C21.529 15.06 21.873 14.732 22.193 14.332C22.529 13.932 22.825 13.452 23.081 12.892V10.492L23.705 10.612C23.449 10.868 23.105 11.06 22.673 11.188C22.257 11.316 21.793 11.42 21.281 11.5C20.769 11.58 20.257 11.668 19.745 11.764C19.233 11.844 18.761 11.972 18.329 12.148C17.913 12.308 17.577 12.54 17.321 12.844C17.065 13.148 16.937 13.564 16.937 14.092C16.937 14.732 17.129 15.22 17.513 15.556C17.897 15.876 18.401 16.036 19.025 16.036ZM28.8804 17.5V10.78V5.092H30.8484L30.6564 9.412H31.0644C31.2084 8.468 31.4324 7.652 31.7364 6.964C32.0404 6.276 32.4404 5.74 32.9364 5.356C33.4484 4.972 34.0804 4.78 34.8324 4.78C34.9924 4.78 35.1764 4.796 35.3844 4.828C35.5924 4.844 35.8324 4.9 36.1044 4.996L35.9844 7.276C35.7444 7.18 35.5044 7.116 35.2644 7.084C35.0244 7.036 34.7924 7.012 34.5684 7.012C33.9444 7.012 33.4004 7.212 32.9364 7.612C32.4884 8.012 32.1124 8.556 31.8084 9.244C31.5044 9.916 31.2564 10.676 31.0644 11.524V17.5H28.8804ZM41.1348 17.812C40.4628 17.812 39.8548 17.684 39.3108 17.428C38.7668 17.156 38.3348 16.764 38.0148 16.252C37.6948 15.724 37.5348 15.06 37.5348 14.26C37.5348 13.668 37.6388 13.148 37.8468 12.7C38.0708 12.252 38.4068 11.868 38.8548 11.548C39.3188 11.228 39.9108 10.964 40.6308 10.756C41.3508 10.548 42.2308 10.372 43.2708 10.228C43.8628 10.148 44.3428 10.068 44.7108 9.988C45.0948 9.908 45.3748 9.78 45.5508 9.604C45.7268 9.412 45.8148 9.132 45.8148 8.764C45.8148 8.156 45.6068 7.644 45.1908 7.228C44.7748 6.812 44.1188 6.604 43.2228 6.604C42.7588 6.604 42.2868 6.684 41.8068 6.844C41.3268 7.004 40.9028 7.276 40.5348 7.66C40.1828 8.028 39.9588 8.548 39.8628 9.22L37.8468 8.548C37.9748 7.972 38.1828 7.452 38.4708 6.988C38.7748 6.524 39.1588 6.132 39.6228 5.812C40.0868 5.476 40.6228 5.22 41.2308 5.044C41.8548 4.868 42.5428 4.78 43.2948 4.78C44.3348 4.78 45.1988 4.956 45.8868 5.308C46.5908 5.66 47.1108 6.204 47.4468 6.94C47.7988 7.66 47.9748 8.588 47.9748 9.724V12.484C47.9748 12.98 47.9828 13.524 47.9988 14.116C48.0308 14.692 48.0708 15.276 48.1188 15.868C48.1668 16.444 48.2148 16.988 48.2628 17.5H46.2468C46.1988 16.988 46.1508 16.476 46.1028 15.964C46.0708 15.452 46.0468 14.94 46.0308 14.428H45.7188C45.4788 15.02 45.1588 15.572 44.7588 16.084C44.3588 16.596 43.8548 17.012 43.2468 17.332C42.6548 17.652 41.9508 17.812 41.1348 17.812ZM41.7828 16.036C42.1348 16.036 42.4868 15.98 42.8388 15.868C43.2068 15.756 43.5668 15.572 43.9188 15.316C44.2868 15.06 44.6308 14.732 44.9508 14.332C45.2868 13.932 45.5828 13.452 45.8388 12.892V10.492L46.4628 10.612C46.2068 10.868 45.8628 11.06 45.4308 11.188C45.0148 11.316 44.5508 11.42 44.0388 11.5C43.5268 11.58 43.0148 11.668 42.5028 11.764C41.9908 11.844 41.5188 11.972 41.0868 12.148C40.6708 12.308 40.3348 12.54 40.0788 12.844C39.8228 13.148 39.6948 13.564 39.6948 14.092C39.6948 14.732 39.8868 15.22 40.2708 15.556C40.6548 15.876 41.1588 16.036 41.7828 16.036ZM55.5022 17.74C54.3502 17.74 53.4942 17.428 52.9342 16.804C52.3742 16.18 52.0942 15.228 52.0942 13.948V6.916H50.2222L50.2462 5.092H51.4222C51.8222 5.092 52.1102 5.02 52.2862 4.876C52.4782 4.732 52.5902 4.492 52.6222 4.156L52.8622 2.284H54.2062V5.092H57.7822V6.94H54.2062V13.9C54.2062 14.54 54.3502 15.004 54.6382 15.292C54.9422 15.564 55.3742 15.7 55.9342 15.7C56.2382 15.7 56.5502 15.66 56.8702 15.58C57.2062 15.5 57.5342 15.34 57.8542 15.1V17.284C57.3902 17.46 56.9582 17.58 56.5582 17.644C56.1742 17.708 55.8222 17.74 55.5022 17.74ZM60.5444 17.5V9.964V0.699999H62.8004V4.564C62.8004 4.916 62.7844 5.276 62.7524 5.644C62.7364 5.996 62.7044 6.356 62.6564 6.724C62.6244 7.092 62.5844 7.468 62.5364 7.852C62.4884 8.22 62.4324 8.596 62.3684 8.98H62.7764C63.0164 8.036 63.3204 7.26 63.6884 6.652C64.0564 6.028 64.5124 5.564 65.0564 5.26C65.6164 4.94 66.2804 4.78 67.0484 4.78C68.4564 4.78 69.5044 5.276 70.1924 6.268C70.8964 7.244 71.2484 8.708 71.2484 10.66V17.5H69.0404V10.876C69.0404 9.436 68.8164 8.388 68.3684 7.732C67.9364 7.06 67.2804 6.724 66.4004 6.724C65.6644 6.724 65.0404 6.94 64.5284 7.372C64.0164 7.804 63.6084 8.388 63.3044 9.124C63.0164 9.86 62.8244 10.7 62.7284 11.644V17.5H60.5444ZM79.2562 17.812C78.2002 17.812 77.2962 17.532 76.5442 16.972C75.7922 16.412 75.2162 15.644 74.8162 14.668C74.4322 13.692 74.2402 12.572 74.2402 11.308C74.2402 10.044 74.4322 8.924 74.8162 7.948C75.2002 6.972 75.7602 6.204 76.4962 5.644C77.2322 5.084 78.1362 4.804 79.2082 4.804C80.0882 4.804 80.8082 4.988 81.3682 5.356C81.9282 5.724 82.3762 6.204 82.7122 6.796C83.0642 7.372 83.3202 8.004 83.4802 8.692H83.9122C83.8322 8.228 83.7602 7.748 83.6962 7.252C83.6322 6.74 83.5762 6.244 83.5282 5.764C83.4802 5.268 83.4562 4.828 83.4562 4.444V0.699999H85.6642V11.38V17.5H83.6962L83.8162 14.14H83.4322C83.2402 14.86 82.9682 15.5 82.6162 16.06C82.2642 16.604 81.8162 17.036 81.2722 17.356C80.7282 17.66 80.0562 17.812 79.2562 17.812ZM79.7602 15.892C80.3362 15.892 80.8562 15.756 81.3202 15.484C81.7842 15.212 82.1762 14.86 82.4962 14.428C82.8162 13.98 83.0562 13.5 83.2162 12.988C83.3922 12.476 83.4802 11.98 83.4802 11.5V11.212C83.4802 10.876 83.4322 10.516 83.3362 10.132C83.2402 9.732 83.0962 9.332 82.9042 8.932C82.7282 8.532 82.4882 8.164 82.1842 7.828C81.8962 7.476 81.5522 7.204 81.1522 7.012C80.7522 6.804 80.3042 6.7 79.8082 6.7C79.0882 6.7 78.4802 6.908 77.9842 7.324C77.5042 7.724 77.1362 8.276 76.8802 8.98C76.6402 9.684 76.5202 10.476 76.5202 11.356C76.5202 12.268 76.6482 13.068 76.9042 13.756C77.1602 14.428 77.5282 14.956 78.0082 15.34C78.5042 15.708 79.0882 15.892 79.7602 15.892ZM94.7943 17.812C93.8183 17.812 92.9543 17.668 92.2023 17.38C91.4663 17.076 90.8423 16.644 90.3303 16.084C89.8183 15.524 89.4343 14.86 89.1783 14.092C88.9223 13.324 88.7943 12.46 88.7943 11.5C88.7943 10.524 88.9223 9.628 89.1783 8.812C89.4343 7.996 89.8103 7.284 90.3063 6.676C90.8023 6.068 91.4103 5.604 92.1303 5.284C92.8503 4.948 93.6743 4.78 94.6023 4.78C95.4183 4.78 96.1623 4.916 96.8343 5.188C97.5063 5.46 98.0743 5.884 98.5383 6.46C99.0183 7.02 99.3783 7.732 99.6183 8.596C99.8583 9.444 99.9543 10.444 99.9063 11.596L90.1623 11.668V10.18L98.5863 10.108L97.8423 11.116C97.9223 10.108 97.8263 9.276 97.5543 8.62C97.2823 7.964 96.8903 7.468 96.3783 7.132C95.8823 6.796 95.2903 6.628 94.6023 6.628C93.8663 6.628 93.2183 6.82 92.6583 7.204C92.0983 7.588 91.6663 8.14 91.3623 8.86C91.0743 9.58 90.9303 10.452 90.9303 11.476C90.9303 12.948 91.2583 14.076 91.9143 14.86C92.5703 15.628 93.5383 16.012 94.8183 16.012C95.3303 16.012 95.7703 15.956 96.1383 15.844C96.5223 15.716 96.8423 15.548 97.0983 15.34C97.3703 15.116 97.5863 14.86 97.7463 14.572C97.9223 14.284 98.0583 13.972 98.1543 13.636L100.074 14.092C99.9303 14.668 99.7063 15.188 99.4023 15.652C99.1143 16.1 98.7463 16.484 98.2983 16.804C97.8663 17.124 97.3623 17.372 96.7863 17.548C96.2103 17.724 95.5463 17.812 94.7943 17.812ZM107.809 17.812C106.945 17.812 106.177 17.716 105.505 17.524C104.833 17.348 104.273 17.092 103.825 16.756C103.377 16.404 103.033 15.988 102.793 15.508C102.553 15.028 102.425 14.5 102.409 13.924L104.257 13.444C104.225 13.972 104.353 14.436 104.641 14.836C104.945 15.22 105.369 15.516 105.913 15.724C106.473 15.932 107.145 16.036 107.929 16.036C108.873 16.036 109.601 15.876 110.113 15.556C110.641 15.236 110.905 14.796 110.905 14.236C110.905 13.788 110.761 13.444 110.473 13.204C110.185 12.948 109.785 12.748 109.273 12.604C108.777 12.444 108.185 12.3 107.497 12.172C106.921 12.044 106.345 11.9 105.769 11.74C105.193 11.58 104.665 11.372 104.185 11.116C103.721 10.844 103.345 10.492 103.057 10.06C102.769 9.628 102.625 9.092 102.625 8.452C102.625 7.7 102.825 7.052 103.225 6.508C103.625 5.964 104.193 5.54 104.929 5.236C105.665 4.932 106.545 4.78 107.569 4.78C108.593 4.78 109.465 4.94 110.185 5.26C110.905 5.564 111.473 5.996 111.889 6.556C112.305 7.116 112.537 7.772 112.585 8.524L110.689 9.004C110.673 8.476 110.529 8.028 110.257 7.66C110.001 7.292 109.633 7.02 109.153 6.844C108.673 6.652 108.113 6.556 107.473 6.556C106.625 6.556 105.953 6.716 105.457 7.036C104.961 7.356 104.713 7.796 104.713 8.356C104.713 8.772 104.857 9.108 105.145 9.364C105.449 9.62 105.857 9.82 106.369 9.964C106.881 10.108 107.449 10.252 108.073 10.396C108.713 10.524 109.321 10.668 109.897 10.828C110.489 10.988 111.017 11.196 111.481 11.452C111.945 11.708 112.313 12.052 112.585 12.484C112.857 12.9 112.993 13.436 112.993 14.092C112.993 14.908 112.777 15.596 112.345 16.156C111.913 16.7 111.305 17.116 110.521 17.404C109.753 17.676 108.849 17.812 107.809 17.812ZM115.975 17.5V5.092H118.159V17.5H115.975ZM117.079 2.932C116.567 2.932 116.183 2.828 115.927 2.62C115.671 2.412 115.543 2.1 115.543 1.684C115.543 1.268 115.671 0.955999 115.927 0.748C116.183 0.539999 116.559 0.435999 117.055 0.435999C117.567 0.435999 117.951 0.539999 118.207 0.748C118.463 0.955999 118.591 1.268 118.591 1.684C118.591 2.084 118.463 2.396 118.207 2.62C117.951 2.828 117.575 2.932 117.079 2.932ZM126.583 21.7C125.271 21.7 124.191 21.596 123.343 21.388C122.511 21.196 121.895 20.892 121.495 20.476C121.095 20.076 120.895 19.572 120.895 18.964C120.895 18.228 121.183 17.62 121.759 17.14C122.335 16.66 123.207 16.34 124.375 16.18V15.748C123.527 15.748 122.887 15.644 122.455 15.436C122.023 15.228 121.807 14.916 121.807 14.5C121.807 14.068 122.023 13.708 122.455 13.42C122.887 13.116 123.591 12.836 124.567 12.58V12.124C123.591 12.108 122.847 11.82 122.335 11.26C121.823 10.684 121.567 9.94 121.567 9.028C121.567 8.212 121.783 7.508 122.215 6.916C122.663 6.308 123.303 5.844 124.135 5.524C124.983 5.188 125.991 5.02 127.159 5.02H133.015V6.868L129.175 6.268V6.724C130.103 6.916 130.815 7.244 131.311 7.708C131.807 8.156 132.055 8.764 132.055 9.532C132.055 10.22 131.855 10.82 131.455 11.332C131.055 11.844 130.463 12.244 129.679 12.532C128.911 12.804 127.959 12.94 126.823 12.94C126.599 12.94 126.359 12.932 126.103 12.916C125.863 12.884 125.543 12.836 125.143 12.772C124.711 13.044 124.359 13.292 124.087 13.516C123.831 13.74 123.703 13.94 123.703 14.116C123.703 14.292 123.823 14.436 124.063 14.548C124.319 14.644 124.623 14.708 124.975 14.74C125.327 14.772 125.655 14.788 125.959 14.788H128.767C129.087 14.788 129.487 14.82 129.967 14.884C130.463 14.948 130.951 15.084 131.431 15.292C131.927 15.5 132.343 15.82 132.679 16.252C133.015 16.684 133.183 17.284 133.183 18.052C133.183 18.916 132.927 19.62 132.415 20.164C131.903 20.708 131.159 21.1 130.183 21.34C129.207 21.58 128.007 21.7 126.583 21.7ZM126.631 19.9C127.687 19.9 128.551 19.828 129.223 19.684C129.895 19.556 130.383 19.348 130.687 19.06C131.007 18.772 131.167 18.404 131.167 17.956C131.167 17.54 131.055 17.22 130.831 16.996C130.623 16.756 130.359 16.588 130.039 16.492C129.719 16.396 129.399 16.34 129.079 16.324C128.759 16.292 128.487 16.276 128.263 16.276H125.455C124.527 16.484 123.887 16.772 123.535 17.14C123.183 17.508 123.007 17.9 123.007 18.316C123.007 18.764 123.167 19.1 123.487 19.324C123.807 19.548 124.239 19.7 124.783 19.78C125.343 19.86 125.959 19.9 126.631 19.9ZM126.919 11.524C127.927 11.524 128.687 11.316 129.199 10.9C129.711 10.484 129.967 9.924 129.967 9.22C129.967 8.468 129.703 7.852 129.175 7.372C128.663 6.876 127.887 6.628 126.847 6.628C125.839 6.628 125.063 6.86 124.519 7.324C123.991 7.788 123.727 8.388 123.727 9.124C123.727 9.604 123.847 10.028 124.087 10.396C124.343 10.748 124.703 11.028 125.167 11.236C125.647 11.428 126.231 11.524 126.919 11.524ZM135.919 17.5V9.796V5.092H137.887L137.671 9.028H138.079C138.303 8.052 138.599 7.252 138.967 6.628C139.351 6.004 139.831 5.54 140.407 5.236C140.983 4.932 141.655 4.78 142.423 4.78C143.799 4.78 144.839 5.276 145.543 6.268C146.263 7.244 146.623 8.708 146.623 10.66V17.5H144.415V10.852C144.415 9.444 144.191 8.404 143.743 7.732C143.311 7.06 142.671 6.724 141.823 6.724C141.055 6.724 140.399 6.964 139.855 7.444C139.327 7.924 138.911 8.556 138.607 9.34C138.303 10.124 138.135 10.972 138.103 11.884V17.5H135.919ZM150.55 17.788C150.038 17.788 149.654 17.676 149.398 17.452C149.142 17.228 149.014 16.868 149.014 16.372C149.014 15.892 149.142 15.54 149.398 15.316C149.654 15.092 150.038 14.98 150.55 14.98C151.078 14.98 151.47 15.092 151.726 15.316C151.998 15.54 152.134 15.9 152.134 16.396C152.134 17.324 151.606 17.788 150.55 17.788Z" fill="white"/>
</svg>
